<svg width="36" height="36" viewBox="0 0 36 36" fill="none" xmlns="http://www.w3.org/2000/svg">
<path d="M14.4371 22.7407C13.9728 22.3965 13.3174 22.4939 12.9732 22.9582C12.629 23.4225 12.7265 24.078 13.1908 24.4221C14.5476 25.4279 16.207 26.0233 18 26.0233C19.793 26.0233 21.4524 25.4279 22.8092 24.4221C23.2736 24.078 23.371 23.4225 23.0268 22.9582C22.6826 22.4939 22.0272 22.3965 21.5629 22.7407C20.5466 23.494 19.3199 23.9302 18 23.9302C16.6801 23.9302 15.4534 23.494 14.4371 22.7407Z" fill="#9333EA"/>
<path fill-rule="evenodd" clip-rule="evenodd" d="M18 3C17.0119 3 16.1142 3.283 15.1403 3.75661C14.1989 4.21444 13.1113 4.88943 11.7528 5.73254L8.86923 7.52218C7.58384 8.31992 6.55457 8.9587 5.76126 9.56624C4.93974 10.1954 4.30876 10.8361 3.85299 11.6688C3.39817 12.4997 3.19335 13.3838 3.09515 14.4289C2.99998 15.4417 2.99999 16.6802 3 18.2333V20.4835C2.99998 23.1401 2.99997 25.2371 3.21307 26.8767C3.43168 28.5586 3.89102 29.9164 4.92887 30.9899C5.97151 32.0684 7.29831 32.5502 8.94085 32.7787C10.5328 33 12.5659 33 15.1282 33H20.8718C23.434 33 25.4672 33 27.0592 32.7787C28.7017 32.5502 30.0285 32.0684 31.0711 30.9899C32.109 29.9164 32.5683 28.5586 32.7869 26.8767C33 25.2371 33 23.1401 33 20.4835V18.2333C33 16.6802 33 15.4417 32.9049 14.4289C32.8066 13.3838 32.6018 12.4997 32.147 11.6688C31.6912 10.8361 31.0603 10.1954 30.2387 9.56624C29.4454 8.9587 28.4162 8.31993 27.1308 7.52221L24.2472 5.73253C22.8887 4.88942 21.8011 4.21443 20.8597 3.75661C19.8858 3.283 18.9881 3 18 3ZM12.8086 7.54063C14.226 6.66099 15.2226 6.044 16.0556 5.63888C16.8673 5.24418 17.4421 5.09302 18 5.09302C18.5579 5.09302 19.1327 5.24417 19.9444 5.63888C20.7774 6.044 21.774 6.66099 23.1914 7.54063L25.9821 9.27261C27.3228 10.1047 28.264 10.6903 28.9662 11.228C29.6493 11.7511 30.0423 12.1829 30.311 12.6737C30.5807 13.1664 30.7381 13.7423 30.821 14.6247C30.9059 15.5283 30.907 16.6686 30.907 18.2845V20.4069C30.907 23.1571 30.9049 25.1179 30.7114 26.6069C30.5213 28.0693 30.1632 28.9177 29.5663 29.5351C28.9742 30.1476 28.1681 30.5113 26.7709 30.7056C25.3398 30.9046 23.4524 30.907 20.7907 30.907H15.2093C12.5476 30.907 10.6602 30.9046 9.22915 30.7056C7.8319 30.5113 7.02577 30.1476 6.43366 29.5351C5.83676 28.9177 5.47872 28.0693 5.28864 26.6069C5.0951 25.1179 5.09302 23.1571 5.09302 20.4069V18.2845C5.09302 16.6686 5.09409 15.5283 5.17899 14.6247C5.26191 13.7423 5.41932 13.1664 5.68897 12.6737C5.95766 12.1829 6.35069 11.7511 7.03384 11.228C7.73595 10.6903 8.67725 10.1047 10.0179 9.27261L12.8086 7.54063Z" fill="#9333EA"/>
</svg>