<svg width="240" height="34" viewBox="0 0 240 34" fill="none" xmlns="http://www.w3.org/2000/svg">
<path d="M34 17C34 26.3888 26.3888 34 17 34C7.61116 34 0 26.3888 0 17C0 7.61116 7.61116 0 17 0C26.3888 0 34 7.61116 34 17Z" fill="url(#paint0_linear_1744_8861)"/>
<path d="M7.33697 18.2495C7.38096 13.9855 10.4088 10.5501 14.7064 9.96385C15.2481 9.89 15.8326 9.85653 16.357 9.9777C17.3443 10.2073 17.8327 11.0336 17.7679 12.1287C17.7193 12.9562 17.0526 13.6693 16.1625 13.8493C15.6162 13.9601 15.0572 14.0328 14.5259 14.1932C12.5316 14.7933 11.2387 16.8128 11.5269 18.83C11.8244 20.9071 13.6219 22.5135 15.6903 22.547C17.7818 22.5816 19.643 21.0572 20.0029 19.0088C20.062 18.6696 20.0782 18.3234 20.136 17.9841C20.312 16.9455 21.1361 16.2243 22.1222 16.2346C23.0922 16.245 24.032 16.942 24.0876 17.9275C24.1397 18.86 24.0621 19.8443 23.8121 20.7421C22.907 23.9941 19.6372 27.0187 14.9981 26.6309C11.1531 26.309 8.19117 23.4413 7.52564 19.9032C7.42378 19.3585 7.39716 18.8 7.33582 18.2483L7.33697 18.2495Z" fill="white"/>
<path fill-rule="evenodd" clip-rule="evenodd" d="M23.1713 7.33545C22.554 7.33545 22.0535 7.83591 22.0535 8.45326V9.7111H20.796C20.1787 9.7111 19.6782 10.2116 19.6782 10.8289C19.6782 11.4463 20.1787 11.9467 20.796 11.9467H22.0535V13.2039C22.0535 13.8213 22.554 14.3218 23.1713 14.3218C23.7887 14.3218 24.2891 13.8213 24.2891 13.2039V11.9467H25.5467C26.1641 11.9467 26.6645 11.4463 26.6645 10.8289C26.6645 10.2116 26.1641 9.7111 25.5467 9.7111H24.2891V8.45326C24.2891 7.83591 23.7887 7.33545 23.1713 7.33545Z" fill="white"/>
<path d="M228.103 16.7294L235.104 24.8603H231.148L226.062 18.9584L221.102 24.8603H217.178L224.147 16.7294L217.649 9.16357H221.573L226.188 14.5005L230.677 9.16357H234.633L228.103 16.7294Z" fill="black"/>
<path d="M214.353 11.989H202.109V15.5992H211.213V18.4247H202.109V22.0349H214.353V24.8603H198.97V9.16357H214.353V11.989Z" fill="black"/>
<path d="M179.66 11.989V9.16357H195.357V11.989H189.078V24.8603H185.939V11.989H179.66Z" fill="black"/>
<path d="M160.985 24.8603V9.16357H172.287C175.112 9.16357 176.996 11.0472 176.996 13.8726C176.996 16.3841 175.363 18.1421 172.883 18.3933C173.103 18.6444 173.323 18.927 173.448 19.1467L176.996 24.8603H173.448L169.461 18.4247H164.124V24.8603H160.985ZM164.124 15.5992H172.287C173.228 15.5992 173.856 14.9714 173.856 14.0296V13.5587C173.856 12.6169 173.228 11.989 172.287 11.989H164.124V15.5992Z" fill="black"/>
<path d="M148.895 8.84961C153.604 8.84961 157.057 12.3029 157.057 17.0119C157.057 21.721 153.604 25.1742 148.895 25.1742C144.186 25.1742 140.732 21.721 140.732 17.0119C140.732 12.3029 144.186 8.84961 148.895 8.84961ZM148.895 22.1919C151.72 22.1919 153.761 19.9943 153.761 17.0119C153.761 14.0295 151.72 11.832 148.895 11.832C146.069 11.832 144.029 14.0295 144.029 17.0119C144.029 19.9943 146.069 22.1919 148.895 22.1919Z" fill="black"/>
<path d="M129.519 22.1919C131.874 22.1919 133.694 20.6536 134.228 18.4246H137.587C136.959 22.4116 133.757 25.1742 129.519 25.1742C124.81 25.1742 121.357 21.721 121.357 17.0119C121.357 12.3029 124.81 8.84961 129.519 8.84961C133.757 8.84961 136.959 11.6122 137.587 15.5992H134.228C133.694 13.3389 131.874 11.832 129.519 11.832C126.694 11.832 124.653 14.0295 124.653 17.0119C124.653 19.9943 126.694 22.1919 129.519 22.1919Z" fill="black"/>
<path d="M118.701 11.989H106.457V15.5992H115.561V18.4247H106.457V22.0349H118.701V24.8603H103.318V9.16357H118.701V11.989Z" fill="black"/>
<path d="M83.2369 24.8603V9.16357H94.5386C97.364 9.16357 99.2476 11.0472 99.2476 13.8726C99.2476 16.3841 97.6152 18.1421 95.1351 18.3933C95.3548 18.6444 95.5746 18.927 95.7002 19.1467L99.2476 24.8603H95.7002L91.7132 18.4247H86.3763V24.8603H83.2369ZM86.3763 15.5992H94.5386C95.4804 15.5992 96.1083 14.9714 96.1083 14.0296V13.5587C96.1083 12.6169 95.4804 11.989 94.5386 11.989H86.3763V15.5992Z" fill="black"/>
<path d="M65.6843 24.8603H62.3566L68.7922 9.16357H73.5013L79.9369 24.8603H76.5464L75.2593 21.721H66.9714L65.6843 24.8603ZM68.133 18.8956H74.0977L71.2723 11.989H70.9584L68.133 18.8956Z" fill="black"/>
<path d="M52.8747 22.1919C55.2292 22.1919 57.0501 20.6536 57.5837 18.4246H60.9429C60.315 22.4116 57.1128 25.1742 52.8747 25.1742C48.1657 25.1742 44.7124 21.721 44.7124 17.0119C44.7124 12.3029 48.1657 8.84961 52.8747 8.84961C57.1128 8.84961 60.315 11.6122 60.9429 15.5992H57.5837C57.0501 13.3389 55.2292 11.832 52.8747 11.832C50.0493 11.832 48.0087 14.0295 48.0087 17.0119C48.0087 19.9943 50.0493 22.1919 52.8747 22.1919Z" fill="black"/>
<defs>
<linearGradient id="paint0_linear_1744_8861" x1="4.77397" y1="5.83743e-08" x2="29.5171" y2="34" gradientUnits="userSpaceOnUse">
<stop stop-color="#9333EA"/>
<stop offset="1" stop-color="#FA6EDC"/>
</linearGradient>
</defs>
</svg>
